<svg width="13" height="17" viewBox="0 0 13 17" fill="none" xmlns="http://www.w3.org/2000/svg">
<path d="M13 14.5899V14.4177C13 13.9013 12.4754 13.2127 11.9508 12.8684L10.2022 11.8354C9.6776 11.4911 8.97814 11.6633 8.45355 11.8354L7.57924 12.3519C5.13115 11.1468 3.55738 8.73671 3.38251 5.98228L4.25683 5.46582C4.78142 5.12152 5.13115 4.43291 5.13115 3.91646V1.85063C5.13115 1.33418 4.78142 0.64557 4.25683 0.301266L3.9071 0.129114C3.55738 -0.043038 2.68306 -0.043038 2.15847 0.129114L0.934426 0.989874C0.759563 1.16203 0.409836 1.67848 0.409836 1.67848C-0.464481 4.94937 0.0601092 8.56456 1.98361 11.319C3.73224 14.2456 6.70492 16.3114 10.0273 17C10.0273 17 10.5519 17 10.9016 16.8278L12.3005 16.1392C12.6503 15.7949 13 15.1063 13 14.5899Z" fill="#A0CAF5"/>
</svg>
