<svg width="21" height="15" viewBox="0 0 21 15" fill="none" xmlns="http://www.w3.org/2000/svg">
<g clip-path="url(#clip0)">
<path d="M5.40039 10.2C7.00039 8.60002 8.60039 7.00002 10.2004 5.40002C11.8004 6.90002 13.4004 8.50002 15.0004 10.1C13.4004 11.7 11.8004 13.3 10.2004 14.8C8.60039 13.3 7.00039 11.8 5.40039 10.2Z" fill="#A0CAF5"/>
<path d="M0 4.7C1.6 3.1 3.2 1.5 4.8 0C6.4 1.5 8 3.1 9.6 4.7C8 6.3 6.4 7.9 4.8 9.4C3.2 7.9 1.6 6.3 0 4.7Z" fill="#A0CAF5"/>
<path d="M15.5998 9.4C14.0998 7.9 12.4998 6.3 10.7998 4.7C12.3998 3.1 13.9998 1.5 15.5998 0C17.1998 1.5 18.7998 3.1 20.3998 4.7C18.7998 6.3 17.1998 7.9 15.5998 9.4Z" fill="#A0CAF5"/>
</g>
<defs>
<clipPath id="clip0">
<rect width="20.4" height="14.9" fill="white"/>
</clipPath>
</defs>
</svg>
