<svg width="22" height="20" viewBox="0 0 22 20" fill="none" xmlns="http://www.w3.org/2000/svg">
<g clip-path="url(#clip0)">
<path d="M21.7396 6.64883C21.6738 7.02341 21.6212 7.41137 21.5291 7.78595C21.2659 8.85619 20.7395 9.77926 19.9763 10.5686C17.5024 13.0836 15.0284 15.5987 12.5545 18.1003C12.1334 18.5284 11.5149 18.3946 11.3701 17.8462C11.3175 17.6321 11.3701 17.4314 11.5017 17.2575C11.5544 17.1906 11.6333 17.1237 11.686 17.0569C14.0809 14.6221 16.4891 12.1873 18.8709 9.75251C19.8447 8.76254 20.3184 7.57191 20.279 6.1806C20.2263 3.77258 18.3577 1.75251 16.0022 1.51171C14.5415 1.36455 13.2651 1.80602 12.2255 2.83612C8.9225 6.11371 5.63268 9.41806 2.35602 12.7358C1.42171 13.6856 1.13221 14.8495 1.50067 16.1338C1.85597 17.4047 2.71132 18.2207 3.97462 18.5284C5.21159 18.8361 6.30381 18.4883 7.19864 17.592C9.04094 15.7458 10.8701 13.8997 12.7124 12.0669C14.1599 10.6087 15.6206 9.16388 17.0549 7.70569C17.805 6.94314 17.884 5.76589 17.226 4.93646C16.4891 4 15.1732 3.8796 14.2783 4.65552C14.1994 4.72241 14.1204 4.80268 14.0546 4.88294C11.6333 7.31773 9.21201 9.77927 6.80386 12.2274C6.60647 12.4281 6.38276 12.5485 6.10642 12.4816C5.61953 12.3612 5.4353 11.786 5.73796 11.3846C5.77744 11.3445 5.81691 11.3043 5.85639 11.2642C8.29086 8.77592 10.7385 6.28763 13.1861 3.81271C14.4757 2.51505 16.4365 2.4214 17.7919 3.57191C19.3447 4.89632 19.4236 7.2107 17.9761 8.68227C15.8706 10.8094 13.752 12.9231 11.6333 15.0502C10.449 16.2274 9.27781 17.4181 8.09347 18.5953C6.11958 20.5351 3.09294 20.4549 1.23748 18.408C0.553202 17.6589 0.171583 16.7625 0.0531497 15.7458C0.0399904 15.6789 0.0268312 15.612 0.0136719 15.5318C0.0136719 15.291 0.0136719 15.0368 0.0136719 14.796C0.0268312 14.7425 0.0531497 14.689 0.0531497 14.6355C0.184743 13.5117 0.632158 12.5485 1.43487 11.7458C4.73785 8.41472 8.05399 5.08361 11.3701 1.75251C12.1334 1.00334 13.0282 0.481605 14.0546 0.214047C14.4231 0.120401 14.8179 0.0668896 15.1995 0C15.489 0 15.7653 0 16.0548 0C16.1075 0.0133779 16.1601 0.0401338 16.2127 0.0401338C18.7788 0.294314 20.8711 2.10033 21.5291 4.64214C21.6212 5.00335 21.6738 5.36455 21.7396 5.73913C21.7396 6.04682 21.7396 6.34114 21.7396 6.64883Z" fill="#A0CAF5"/>
</g>
<defs>
<clipPath id="clip0">
<rect width="21.7391" height="20" fill="white"/>
</clipPath>
</defs>
</svg>
