<svg width="16" height="12" viewBox="0 0 16 12" fill="none" xmlns="http://www.w3.org/2000/svg">
<g clip-path="url(#clip0)">
<path d="M8.00009 6.70866L14.9092 0.188976C14.7274 0.0944882 14.4546 0 14.1819 0H1.81827C1.45463 0 1.18191 0.0944882 0.90918 0.283465L8.00009 6.70866Z" fill="#125FCA"/>
<path d="M15.9998 1.88969C15.9998 1.60623 15.9089 1.32277 15.818 1.13379L11.1816 5.48025L15.818 10.8661C15.9089 10.6771 15.9998 10.3936 15.9998 10.1102V1.88969Z" fill="#125FCA"/>
<path d="M10.2727 6.33081L8 8.50404L5.72727 6.4253L1 11.9056C1.27273 12.0001 1.54545 12.0946 1.81818 12.0946H14.1818C14.4545 12.0946 14.7273 12.0001 15 11.9056L10.2727 6.33081Z" fill="#125FCA"/>
<path d="M0.0909091 1.22827C0 1.41725 0 1.70071 0 1.88969V10.1102C0 10.3936 0.0909091 10.5826 0.181818 10.8661L4.81818 5.48024L0.0909091 1.22827Z" fill="#125FCA"/>
</g>
<defs>
<clipPath id="clip0">
<rect width="16" height="12" fill="white"/>
</clipPath>
</defs>
</svg>
