<svg width="69" height="69" viewBox="0 0 69 69" fill="none" xmlns="http://www.w3.org/2000/svg">
<path d="M28.8008 67.6004C43.4773 67.6004 55.375 55.6319 55.375 40.8681C55.375 26.1043 43.4773 14.1359 28.8008 14.1359C14.1242 14.1359 2.22656 26.1043 2.22656 40.8681C2.22656 55.6319 14.1242 67.6004 28.8008 67.6004Z" stroke="#125FCA" stroke-width="2.4" stroke-miterlimit="10"/>
<path d="M46.7486 40.8681C46.7486 50.8052 38.6789 58.9229 28.8006 58.9229C18.9222 58.9229 10.8525 50.8052 10.8525 40.8681C10.8525 30.931 18.9222 22.8134 28.8006 22.8134" stroke="#A0CAF5" stroke-width="2.4" stroke-miterlimit="10"/>
<path d="M25.6006 13.2961V9.2373" stroke="#125FCA" stroke-width="2.4" stroke-miterlimit="10"/>
<path d="M32 13.2961V9.2373" stroke="#125FCA" stroke-width="2.4" stroke-miterlimit="10"/>
<path d="M35.3391 7.55781C35.3391 8.53753 34.6434 9.23733 33.6695 9.23733H23.652C22.6781 9.23733 21.9824 8.53753 21.9824 7.55781V3.07911C21.9824 2.09939 22.8172 1.3996 23.652 1.3996H33.6695C34.6434 1.3996 35.3391 2.09939 35.3391 3.07911V7.55781Z" stroke="#125FCA" stroke-width="2.4" stroke-miterlimit="10"/>
<path d="M47.166 16.2353L49.5313 13.856C50.2269 13.1562 51.2008 13.1562 51.8965 13.856L56.2096 18.1948C56.9052 18.8946 56.9052 19.8743 56.2096 20.5741L53.8443 22.9534" stroke="#125FCA" stroke-width="2.4" stroke-miterlimit="10"/>
<path d="M4.31277 22.3935L1.94753 20.0142C1.25187 19.3144 1.25187 18.3347 1.94753 17.6349L6.26062 13.2961C6.81714 12.5964 7.9302 12.5964 8.62586 13.2961L10.9911 15.6755" stroke="#125FCA" stroke-width="2.4" stroke-miterlimit="10"/>
<path d="M42.9919 26.8722C42.9919 26.8722 26.4352 37.0892 26.0178 37.6491C24.3482 39.3286 24.3482 42.1278 26.0178 43.8073C27.6874 45.4868 30.47 45.4868 32.1396 43.8073C32.4179 43.2474 42.9919 26.8722 42.9919 26.8722Z" stroke="#A0CAF5" stroke-width="2.4" stroke-miterlimit="10"/>
</svg>
