<svg width="69" height="71" viewBox="0 0 69 71" fill="none" xmlns="http://www.w3.org/2000/svg">
<g clip-path="url(#clip0)">
<path d="M32.7041 67H3.50296C2.11243 67 1 65.9558 1 64.6505V7.34947C1 6.04421 2.11243 5 3.50296 5H31.5917C31.5917 5 47.7219 18.3137 48 18.5747V35.2821" stroke="#125FCA" stroke-width="2.4" stroke-miterlimit="10"/>
<path d="M32 5V21H48" stroke="#125FCA" stroke-width="2.4" stroke-miterlimit="10"/>
<path d="M62.7057 54.5647C62.7057 56.5059 59.8587 57.8 59.2116 59.353C58.5645 61.0353 59.5998 64.0118 58.3057 65.3059C57.0116 66.6 54.0351 65.5647 52.3528 66.2118C50.6704 66.8588 49.3763 69.7059 47.5645 69.7059C45.6234 69.7059 44.3292 66.8588 42.7763 66.2118C41.0939 65.5647 38.1175 66.6 36.8234 65.3059C35.5292 64.0118 36.5645 61.0353 35.9175 59.353C35.141 57.6706 32.2939 56.3765 32.2939 54.5647C32.2939 52.6235 35.141 51.3294 35.7881 49.7765C36.4351 48.0941 35.3998 45.1177 36.6939 43.8235C37.9881 42.5294 40.9645 43.5647 42.6469 42.9177C44.3292 42.1412 45.6234 39.2941 47.5645 39.2941C49.5057 39.2941 50.7998 42.1412 52.3528 42.7882C54.0351 43.4353 57.0116 42.4 58.3057 43.6941C59.5998 44.9882 58.5645 47.9647 59.2116 49.6471C59.8587 51.3294 62.7057 52.6235 62.7057 54.5647Z" stroke="#A0CAF5" stroke-width="2.4" stroke-miterlimit="10"/>
<path d="M43.2754 56.1129L47.0204 58.4436L53.262 50.9032" stroke="#A0CAF5" stroke-width="2.4" stroke-miterlimit="10"/>
<path d="M9.9707 25.6377H27.9176" stroke="#125FCA" stroke-width="2.4" stroke-miterlimit="10"/>
<path d="M9.9707 35.4927H36.891" stroke="#125FCA" stroke-width="2.4" stroke-miterlimit="10"/>
<path d="M9.9707 45.3478H29.9117" stroke="#125FCA" stroke-width="2.4" stroke-miterlimit="10"/>
</g>
<defs>
<clipPath id="clip0">
<rect width="64" height="70" fill="white" transform="translate(0 1)"/>
</clipPath>
</defs>
</svg>
