<svg width="69" height="69" viewBox="0 0 69 69" fill="none" xmlns="http://www.w3.org/2000/svg">
<g clip-path="url(#clip0)">
<path d="M67.9043 39.4286L25.8746 66.9464L2.46387 52.2976" stroke="#125FCA" stroke-width="2.4" stroke-miterlimit="10"/>
<path d="M67.9043 39.4286L25.8746 66.9464L2.46387 52.2976" stroke="#125FCA" stroke-width="2.4" stroke-miterlimit="10"/>
<path d="M46.2732 23L54.6244 17.5238C55.5827 16.8393 55.5827 15.4702 54.6244 14.7857L47.0946 9.85714C45.7256 9.03572 44.0827 9.03572 42.7137 9.85714L34.2256 15.4702" stroke="#A0CAF5" stroke-width="2.4" stroke-miterlimit="10"/>
<path d="M24.0945 22.1786L15.6064 27.7917C14.6481 28.4762 14.6481 29.8452 15.6064 30.5298L23.1362 35.3214C24.5053 36.1429 26.1481 36.1429 27.5172 35.3214L36.0053 29.7083" stroke="#A0CAF5" stroke-width="2.4" stroke-miterlimit="10"/>
<path d="M41.3448 48.875L25.8746 59.006L2.46387 44.3572" stroke="#125FCA" stroke-width="2.4" stroke-miterlimit="10"/>
<path d="M67.9046 31.4881L51.8867 42.0298" stroke="#125FCA" stroke-width="2.4" stroke-miterlimit="10"/>
<path d="M41.3448 40.9345L25.8746 51.0655L2.46387 36.4167" stroke="#125FCA" stroke-width="2.4" stroke-miterlimit="10"/>
<path d="M67.9046 23.5476L51.8867 34.0893" stroke="#125FCA" stroke-width="2.4" stroke-miterlimit="10"/>
<path d="M51.8863 26.4226L67.6303 16.0179L44.6303 1.64287L2.60059 29.1607L25.7375 43.6726L41.3446 33.4048" stroke="#125FCA" stroke-width="2.4" stroke-miterlimit="10"/>
<path d="M18.4814 18.756L24.0945 22.1786L36.1422 29.7083L41.3445 32.9941V33.4048V40.9345V48.875V56.4048" stroke="#125FCA" stroke-width="2.4" stroke-miterlimit="10"/>
<path d="M28.75 12.0476L34.2262 15.4702L46.2738 23L51.8869 26.4226V34.0893V42.0298V49.8333" stroke="#125FCA" stroke-width="2.4" stroke-miterlimit="10"/>
</g>
<defs>
<clipPath id="clip0">
<rect width="69" height="68.5893" fill="white"/>
</clipPath>
</defs>
</svg>
