<svg width="69" height="69" viewBox="0 0 69 69" fill="none" xmlns="http://www.w3.org/2000/svg">
<g clip-path="url(#clip0)">
<path d="M28.7024 38.0348C34.0906 38.0348 38.4586 33.6669 38.4586 28.2787C38.4586 22.8905 34.0906 18.5225 28.7024 18.5225C23.3143 18.5225 18.9463 22.8905 18.9463 28.2787C18.9463 33.6669 23.3143 38.0348 28.7024 38.0348Z" stroke="#125FCA" stroke-width="2.4" stroke-miterlimit="10"/>
<path d="M52.8813 39.166C54.2952 35.7725 55.0022 32.0963 55.0022 28.2787C55.0022 13.4324 42.9837 1.41394 28.1374 1.41394C13.2911 1.41394 1.41406 13.4324 1.41406 28.1373C1.41406 47.6496 28.1374 67.1619 28.1374 67.1619C28.1374 67.1619 31.8137 64.7582 36.4796 60.6578" stroke="#125FCA" stroke-width="2.4" stroke-miterlimit="10"/>
<path d="M46.801 64.7582C54.0633 64.7582 59.9506 58.8709 59.9506 51.6086C59.9506 44.3463 54.0633 38.459 46.801 38.459C39.5386 38.459 33.6514 44.3463 33.6514 51.6086C33.6514 58.8709 39.5386 64.7582 46.801 64.7582Z" stroke="#A0CAF5" stroke-width="2.4" stroke-miterlimit="10"/>
<path d="M57.8298 44.2561L46.3769 55.5676L41.7109 50.9016" stroke="#A0CAF5" stroke-width="2.4" stroke-miterlimit="10"/>
</g>
<defs>
<clipPath id="clip0">
<rect width="61.3648" height="69" fill="white"/>
</clipPath>
</defs>
</svg>
