<svg width="69" height="70" viewBox="0 0 69 70" fill="none" xmlns="http://www.w3.org/2000/svg">
<g clip-path="url(#clip0)">
<path d="M57.6631 9.71805C57.6631 9.71805 59.9025 9.71805 62.7016 9.71805C67.7402 9.71805 67.7402 9.71805 67.7402 15.7363V65.2819C67.7402 66.8215 66.4806 68.0811 64.941 68.0811H4.1986C2.65905 68.0811 1.39941 66.8215 1.39941 65.2819V12.5172C1.39941 10.9777 2.65905 9.71805 4.1986 9.71805H13.4359" stroke="#125FCA" stroke-width="2.4" stroke-miterlimit="10"/>
<path d="M28.832 9.71805H42.828" stroke="#125FCA" stroke-width="2.4" stroke-miterlimit="10"/>
<path d="M1.95898 25.3935H67.6" stroke="#125FCA" stroke-width="2.4" stroke-miterlimit="10"/>
<path d="M21.1338 3V16.5761" stroke="#125FCA" stroke-width="2.4" stroke-miterlimit="10"/>
<path d="M50.2451 3V16.5761" stroke="#125FCA" stroke-width="2.4" stroke-miterlimit="10"/>
<rect x="11.2" y="35.2" width="11.6" height="7.6" stroke="#A0CAF5" stroke-width="2.4"/>
<rect x="30.2" y="35.2" width="9.6" height="7.6" stroke="#A0CAF5" stroke-width="2.4"/>
<rect x="47.2" y="35.2" width="11.6" height="7.6" stroke="#A0CAF5" stroke-width="2.4"/>
<rect x="11.2" y="50.2" width="11.6" height="7.6" stroke="#A0CAF5" stroke-width="2.4"/>
<rect x="30.2" y="50.2" width="9.6" height="7.6" stroke="#A0CAF5" stroke-width="2.4"/>
<rect x="47.2" y="50.2" width="11.6" height="7.6" stroke="#A0CAF5" stroke-width="2.4"/>
</g>
<defs>
<clipPath id="clip0">
<rect width="69" height="66.4807" fill="white" transform="translate(0 3)"/>
</clipPath>
</defs>
</svg>
