<svg width="71" height="72" viewBox="0 0 71 72" fill="none" xmlns="http://www.w3.org/2000/svg">
<circle cx="29.5" cy="29.5" r="9.3" stroke="#A0CAF5" stroke-width="2.4"/>
<path d="M14.9996 58.0001L8.47442 64.1569V69.1067H13.4242L24.4996 58.0001" stroke="#A0CAF5" stroke-width="2.4"/>
<path d="M45.5161 58.0001L52.0412 64.1569V69.1067H47.0915L36.0161 58.0001" stroke="#A0CAF5" stroke-width="2.4"/>
<path d="M27 66V58H34V66L30.5 69.5L27 66Z" stroke="#A0CAF5" stroke-width="2.4"/>
<circle cx="29.5" cy="29.5" r="14.3" stroke="#125FCA" stroke-width="2.4"/>
<path d="M8.61225 22L2.81742 23.0761C2.34365 23.1641 2 23.5774 2 24.0593V37.9077C2 38.4081 2.36992 38.8315 2.86582 38.8986L11 40" stroke="#A0CAF5" stroke-width="2.4"/>
<path d="M50 30.5V21.0734L46.9511 4.45854C46.6898 3.0343 45.4484 2 44.0004 2H14.9996C13.5516 2 12.3102 3.0343 12.0489 4.45854L9 21.0734V30.5" stroke="#125FCA" stroke-width="2.4"/>
<path d="M51 29H43.5M14.617 29H8" stroke="#125FCA" stroke-width="2.4"/>
<path d="M47 7L54.1185 7.8498C54.6214 7.90983 55 8.33631 55 8.84275V19.206C55 19.6945 54.6472 20.1114 54.1655 20.1923L49.3529 21" stroke="#125FCA" stroke-width="2.4"/>
<path d="M11 29.5L11.8977 46.1079C11.9551 47.169 12.8322 48 13.8948 48H45.1025C46.1662 48 47.0438 47.1674 47.0997 46.1051L48 29" stroke="#125FCA" stroke-width="2.4"/>
<path d="M21 48.5V53M38.5 48V52.5M13 58H46.5C47.0523 58 47.5 57.5523 47.5 57V54C47.5 53.4477 47.0523 53 46.5 53H13C12.4477 53 12 53.4477 12 54V57C12 57.5523 12.4477 58 13 58Z" stroke="#125FCA" stroke-width="2.4"/>
</svg>
