<svg width="88" height="69" viewBox="0 0 88 69" fill="none" xmlns="http://www.w3.org/2000/svg">
<path d="M22.8912 10.1047L17.9086 6.94238L10.6611 14.1706L13.8319 19.14" stroke="#A0CAF5" stroke-width="2.04"/>
<path d="M3.93013 40.7143C0.488945 37.2822 0.488941 31.7178 3.93012 28.2857L24.3611 7.90906C27.8023 4.47702 33.3815 4.47702 36.8227 7.90906L63.4845 34.5L36.8227 61.0909C33.3815 64.523 27.8023 64.523 24.3611 61.0909L3.93013 40.7143Z" stroke="#125FCA" stroke-width="2.4"/>
<path d="M47.5109 34.5C47.5109 43.8143 39.9392 51.3705 30.5923 51.3705C21.2454 51.3705 13.6736 43.8143 13.6736 34.5C13.6736 25.1856 21.2454 17.6294 30.5923 17.6294C39.9392 17.6294 47.5109 25.1856 47.5109 34.5Z" stroke="#125FCA" stroke-width="2.4"/>
<path d="M42.0753 34.4999C42.0753 40.8202 36.9371 45.9493 30.5922 45.9493C24.2473 45.9493 19.1092 40.8202 19.1092 34.4999C19.1092 28.1796 24.2473 23.0506 30.5922 23.0506C36.9371 23.0506 42.0753 28.1796 42.0753 34.4999Z" stroke="#A0CAF5" stroke-width="2.4"/>
<path d="M63.2051 34.9518L77.7 20.4954L86.3063 29.0789" stroke="#125FCA" stroke-width="2.4"/>
<path d="M74.5293 24.1094L82.2297 31.7893L86.3064 27.7235" stroke="#125FCA" stroke-width="2.4"/>
</svg>
