<svg width="69" height="69" viewBox="0 0 69 69" fill="none" xmlns="http://www.w3.org/2000/svg">
<g clip-path="url(#clip0)">
<path d="M33.5489 33.3386L63.4308 63.628L60.1709 66.8878L30.2891 36.5985" stroke="#125FCA" stroke-width="2.4" stroke-miterlimit="10"/>
<path d="M56.7754 62.8129L59.8994 59.8247" stroke="#125FCA" stroke-width="2.4" stroke-miterlimit="10"/>
<path d="M44.6874 29.5354L38.5752 23.2874" stroke="#125FCA" stroke-width="2.4" stroke-miterlimit="10"/>
<path d="M28.9307 22.7441H28.7949" stroke="#285BA2" stroke-width="2.4" stroke-miterlimit="10"/>
<path d="M28.7954 22.744L14.941 8.88971C12.4961 6.309 9.91544 7.8031 7.33473 10.3838C4.75402 12.9645 3.25993 15.5452 5.84064 18.1259L19.695 31.9803C19.9666 31.9803 20.2383 31.8444 20.5099 31.8444C21.8682 31.8444 23.2265 32.3877 24.3131 33.4744C25.6713 34.8326 26.2147 36.5984 25.8072 38.0925L27.3013 39.5866L36.5375 30.3503L35.0434 28.8562C33.5493 29.1279 31.7836 28.5846 30.4253 27.3622C29.067 26.0039 28.5237 24.2381 28.7954 22.744Z" stroke="#A0CAF5" stroke-width="2.4" stroke-miterlimit="10"/>
<path d="M41.8349 32.5236L44.6873 29.5354L46.7247 27.498C48.3546 25.7322 51.207 25.7322 52.8369 27.498C53.9235 28.5846 54.1952 30.2145 53.9235 31.7086C53.516 34.561 54.331 35.2401 54.331 35.2401L56.64 37.5492C57.0475 37.9566 57.7267 37.9566 58.1341 37.5492L67.3704 28.1771C67.7778 27.7696 67.7778 27.0905 67.3704 26.683L65.0613 24.374C65.0613 24.374 64.2463 23.559 61.6656 23.9665C60.1715 24.1023 58.6774 23.9665 57.455 22.8799C55.8251 21.1141 55.8251 18.3976 57.455 16.6318L51.3428 10.3838C42.1066 1.14758 26.2148 7.53144 26.2148 7.53144C26.2148 7.53144 34.9078 8.61805 40.4767 15.1377C42.1066 16.9035 42.1066 19.62 40.4767 21.3858L38.4393 23.4232" stroke="#125FCA" stroke-width="2.4" stroke-miterlimit="10"/>
<path d="M18.8801 43.1182L2.17336 59.2816C1.63005 60.0965 1.3584 60.9115 1.3584 61.8623C1.3584 64.443 3.3958 66.4804 5.97651 66.4804C7.19895 66.4804 8.28556 66.0729 9.10052 65.3938L28.9312 45.563" stroke="#125FCA" stroke-width="2.4" stroke-miterlimit="10"/>
</g>
<defs>
<clipPath id="clip0">
<rect width="69" height="64.7894" fill="white" transform="translate(0 4)"/>
</clipPath>
</defs>
</svg>
