<svg width="21" height="23" viewBox="0 0 21 23" fill="none" xmlns="http://www.w3.org/2000/svg">
<path d="M7.8 0C9.86869 0 11.8526 0.902385 13.3154 2.50864C14.7782 4.1149 15.6 6.29345 15.6 8.56503C15.6 10.5694 14.968 12.4209 13.9165 13.8861C13.8102 14.0343 13.8176 14.2373 13.9404 14.3721C14.0115 14.4502 14.1122 14.4947 14.2178 14.4947H14.526C14.8279 14.4947 15.1159 14.6219 15.3192 14.8451L20.184 20.1871C20.6465 20.695 20.6465 21.4714 20.184 21.9792C19.6561 22.5589 18.7439 22.5589 18.216 21.9792L13.5505 16.856C13.325 16.6084 13.2 16.2856 13.2 15.9507V15.5633C13.2 15.4777 13.1681 15.3952 13.1104 15.3319C12.9814 15.1902 12.762 15.182 12.6166 15.3066C11.2869 16.4461 9.61207 17.1301 7.8 17.1301C5.73131 17.1301 3.74735 16.2277 2.28457 14.6214C0.821783 13.0152 0 10.8366 0 8.56503C0 6.29345 0.821783 4.1149 2.28457 2.50864C3.74735 0.902385 5.73131 0 7.8 0ZM7.8 2.6354C4.8 2.6354 2.4 5.27079 2.4 8.56503C2.4 11.8593 4.8 14.4947 7.8 14.4947C10.8 14.4947 13.2 11.8593 13.2 8.56503C13.2 5.27079 10.8 2.6354 7.8 2.6354Z" fill="#125FCA"/>
</svg>
