<svg width="13" height="20" viewBox="0 0 13 20" fill="none" xmlns="http://www.w3.org/2000/svg">
<path d="M13 16.7276V16.5386C13 15.9715 12.4754 15.2154 11.9508 14.8373L10.2022 13.7031C9.6776 13.325 8.97814 13.514 8.45355 13.7031L7.57924 14.2702C5.13115 12.9469 3.55738 10.3004 3.38251 7.27581L4.25683 6.7087C4.78142 6.33063 5.13115 5.57448 5.13115 5.00737V2.73893C5.13115 2.17182 4.78142 1.41567 4.25683 1.0376L3.9071 0.848565C3.55738 0.659528 2.68306 0.659528 2.15847 0.848565L0.934426 1.79375C0.759563 1.98278 0.409836 2.5499 0.409836 2.5499C-0.464481 6.14159 0.0601092 10.1114 1.98361 13.136C3.73224 16.3496 6.70492 18.618 10.0273 19.3742C10.0273 19.3742 10.5519 19.3742 10.9016 19.1851L12.3005 18.429C12.6503 18.0509 13 17.2948 13 16.7276Z" fill="#125FCA"/>
</svg>
