<svg width="21" height="16" viewBox="0 0 21 16" fill="none" xmlns="http://www.w3.org/2000/svg">
<g clip-path="url(#clip0)">
<path d="M5.3999 10.6999C6.9999 9.0999 8.5999 7.4999 10.1999 5.8999C11.7999 7.3999 13.3999 8.9999 14.9999 10.5999C13.3999 12.1999 11.7999 13.7999 10.1999 15.2999C8.5999 13.7999 6.9999 12.2999 5.3999 10.6999Z" fill="#125FCA"/>
<path d="M0 5.2C1.6 3.6 3.2 2 4.8 0.5C6.4 2 8 3.6 9.6 5.2C8 6.8 6.4 8.4 4.8 9.9C3.2 8.4 1.6 6.8 0 5.2Z" fill="#125FCA"/>
<path d="M15.5998 9.9C14.0998 8.4 12.4998 6.8 10.7998 5.2C12.3998 3.6 13.9998 2 15.5998 0.5C17.1998 2 18.7998 3.6 20.3998 5.2C18.7998 6.8 17.1998 8.4 15.5998 9.9Z" fill="#125FCA"/>
</g>
<defs>
<clipPath id="clip0">
<rect width="20.4" height="14.9" fill="white" transform="translate(0 0.5)"/>
</clipPath>
</defs>
</svg>
