<svg width="66" height="69" viewBox="0 0 66 69" fill="none" xmlns="http://www.w3.org/2000/svg">
<g clip-path="url(#clip0)">
<path fill-rule="evenodd" clip-rule="evenodd" d="M29.3366 13.157C29.4898 13.157 29.643 13.157 29.7962 13.157C29.7196 13.4655 29.7196 13.6969 29.643 14.0054C29.2601 14.931 29.5664 15.6252 30.409 16.0108C30.792 16.1651 31.1749 16.3194 31.5579 16.4736C32.6303 16.7822 33.7026 17.0135 34.7749 17.3992C37.226 18.3248 38.7579 20.0217 38.9877 22.7213C39.1409 23.9554 39.0643 25.1895 39.0643 26.4236C39.0643 28.1204 39.0643 29.8173 39.0643 31.5142C39.0643 31.977 39.1409 32.3627 39.6005 32.5941C39.9069 32.7483 40.06 33.134 39.9835 33.4425C39.6771 35.2165 39.2941 36.9905 38.9111 38.7646C38.8345 39.3045 34.392 45.9378 34.4686 46.3234C34.5452 47.4033 35.1579 48.3288 35.3111 49.4087C35.3877 49.7943 36.7664 50.1029 37.1494 50.2571C37.609 50.4885 37.9154 50.8742 38.0686 51.337C38.2983 51.954 38.4515 52.6482 38.6813 53.2652C38.7579 53.4966 38.9877 53.728 39.2175 53.8823C40.826 54.8079 42.5111 55.6563 44.1196 56.5047C46.7239 57.8931 49.3281 59.2815 51.9324 60.6698C52.6218 60.9784 52.8515 61.4411 52.8515 62.2125C52.8515 63.6008 52.8515 65.0663 52.8515 66.4547C52.8515 67.0717 52.6983 67.6116 52.0856 67.9202C42.7409 67.9202 33.3962 67.9202 23.9749 67.9202C16.6218 67.9202 9.26856 67.9202 1.91537 67.9202C1.30261 67.6116 1.14941 67.0717 1.14941 66.4547C1.14941 64.9892 1.14941 63.6008 1.14941 62.1353C1.14941 61.4411 1.3792 60.9784 1.99197 60.6698C3.90686 59.6671 5.82175 58.6644 7.81324 57.5846C10.1111 56.3505 12.4856 55.1164 14.7835 53.8823C15.0132 53.8052 15.1664 53.4966 15.3196 53.2652C15.5494 52.6482 15.7026 51.954 16.009 51.2598C16.1622 50.8742 17.6175 50.4885 18.0005 50.2571C18.3835 49.9486 19.0728 49.7172 19.1494 49.2544C19.226 48.3288 19.8388 47.6347 19.992 46.7091C20.1452 45.9378 15.7026 40.5386 15.4728 39.6901C15.1664 38.6874 14.8601 37.6076 14.6303 36.6049C14.4005 35.6022 14.2473 34.5223 14.0941 33.4425C14.0175 33.0568 14.0175 32.6712 14.4005 32.5169C14.9366 32.2855 15.0132 31.8227 15.0132 31.2828C15.0132 28.5832 15.0132 25.9608 15.0132 23.2612C15.0132 22.567 15.1664 21.8728 15.3962 21.1786C16.009 19.4046 17.2345 18.1705 18.9196 17.4763C21.2175 16.3965 23.5154 15.4709 25.8132 14.4682C26.8856 14.0826 28.1111 13.6198 29.3366 13.157Z" stroke="#125FCA" stroke-width="2.4" stroke-miterlimit="10" stroke-linecap="round" stroke-linejoin="round"/>
<path d="M37.5321 57.4303H28.0342V63.2151H37.5321V57.4303Z" stroke="#A0CAF5" stroke-width="2.4" stroke-miterlimit="10" stroke-linecap="round" stroke-linejoin="round"/>
<path d="M32.7832 57.4303V55.3478" stroke="#A0CAF5" stroke-width="2.4" stroke-miterlimit="10" stroke-linecap="round" stroke-linejoin="round"/>
</g>
<defs>
<clipPath id="clip0">
<rect width="54" height="57" fill="white" transform="translate(0 12)"/>
</clipPath>
</defs>
</svg>
