<svg width="55" height="57" viewBox="0 0 55 57" fill="none" xmlns="http://www.w3.org/2000/svg">
<g clip-path="url(#clip0)">
<path d="M27.5 0V14.5133" stroke="#125FCA" stroke-width="2.4" stroke-miterlimit="10"/>
<path d="M18.6855 12.4066V4.68176C18.6855 3.27724 19.8608 2.10681 21.3885 2.10681H33.4932C35.021 2.10681 36.1962 3.27724 36.1962 4.68176V12.4066" stroke="#125FCA" stroke-width="2.4" stroke-miterlimit="10"/>
<path d="M18.6855 5.73511C9.75386 9.01231 3.40771 17.2053 3.40771 26.9199L1.1748 28.9096V33.0062C1.1748 33.0062 9.16626 35.1129 27.4996 35.1129C45.8329 35.1129 53.8244 33.0062 53.8244 33.0062V28.9096L51.5915 26.9199C51.5915 17.3224 45.2453 9.01231 36.1962 5.73511" stroke="#125FCA" stroke-width="2.4" stroke-miterlimit="10"/>
<path d="M9.98926 26.9199H45.0106" stroke="#125FCA" stroke-width="2.4" stroke-miterlimit="10"/>
<path d="M5.52309 49.6263H1.1748V43.423H5.52309" stroke="#A0CAF5" stroke-width="2.4" stroke-miterlimit="10"/>
<path d="M49.3584 49.6263H53.8242V43.423H49.3584" stroke="#A0CAF5" stroke-width="2.4" stroke-miterlimit="10"/>
<path d="M27.4996 45.5297C28.6748 45.5297 29.7325 46.4661 29.7325 47.6365C29.7325 47.6365 30.9077 55.9466 37.3714 55.9466H42.8949C46.5381 55.9466 49.4761 53.1375 49.4761 49.7433V43.54C49.4761 41.1991 47.4782 39.4435 45.1278 39.4435H9.98892C7.52097 39.4435 5.64062 41.3162 5.64062 43.54V49.7433C5.64062 53.1375 8.57866 55.9466 12.2218 55.9466H17.6278C24.0915 55.9466 25.2667 47.6365 25.2667 47.6365C25.2667 46.349 26.3244 45.5297 27.4996 45.5297Z" stroke="#A0CAF5" stroke-width="2.4" stroke-miterlimit="10"/>
</g>
<defs>
<clipPath id="clip0">
<rect width="55" height="57" fill="white"/>
</clipPath>
</defs>
</svg>
