<svg width="86" height="60" viewBox="0 0 86 60" fill="none" xmlns="http://www.w3.org/2000/svg">
<g clip-path="url(#clip0)">
<path d="M42.9997 4.82354C42.9997 4.82354 37.2429 -0.11764 31.4861 3.41177L29.0189 5.41177C29.0189 5.41177 25.1418 9.17648 13.9806 1.52942L1.64453 15.6471L12.5708 26.3529" stroke="#A0CAF5" stroke-width="2.4" stroke-miterlimit="10"/>
<path d="M43.9395 4.2353C43.9395 4.2353 48.7564 7.17289e-06 54.5132 3.41177L56.9804 5.41177C56.9804 5.41177 60.8575 9.17648 72.0187 1.52942L84.3547 15.5294L67.9067 31.7647" stroke="#125FCA" stroke-width="2.4" stroke-miterlimit="10"/>
<path d="M37.5957 49.7648L40.7678 52.9412C42.4126 54.5883 44.9973 54.5883 46.6422 52.9412C48.287 51.2942 48.287 48.7059 46.6422 47.0589L44.2924 44.7059" stroke="#A0CAF5" stroke-width="2.4" stroke-miterlimit="10"/>
<path d="M8.10665 36.8235C6.46184 35.1765 6.46184 32.5882 8.10665 30.9412L15.2733 23.7647C16.9181 22.1177 19.5028 22.1177 21.1476 23.7647C22.7924 25.4118 22.7924 28 21.1476 29.6471L13.981 36.8235C12.3362 38.4706 9.75146 38.4706 8.10665 36.8235Z" stroke="#125FCA" stroke-width="2.4" stroke-miterlimit="10"/>
<path d="M20.5598 49.0588C18.915 47.4117 18.915 44.8235 20.5598 43.1764L27.7264 35.9999C29.3713 34.3529 31.956 34.3529 33.6008 35.9999C35.2456 37.647 35.2456 40.2352 33.6008 41.8823L26.4341 49.0588C24.9068 50.5882 22.2046 50.5882 20.5598 49.0588Z" stroke="#125FCA" stroke-width="2.4" stroke-miterlimit="10"/>
<path d="M28.1965 53.1765C26.5517 51.5295 26.5517 48.9412 28.1965 47.2942L33.6009 41.8824C35.2457 40.2353 37.8304 40.2353 39.4752 41.8824C41.12 43.5294 41.12 46.1177 39.4752 47.7647L34.0708 53.1765C32.426 54.8236 29.8413 54.8236 28.1965 53.1765Z" stroke="#125FCA" stroke-width="2.4" stroke-miterlimit="10"/>
<path d="M12.5707 44.7059C10.8084 42.9412 10.8084 40.1177 12.5707 38.353L21.0298 29.8824C22.7921 28.1177 25.6117 28.1177 27.374 29.8824C29.1363 31.6471 29.1363 34.4706 27.374 36.2353L19.0325 44.7059C17.2702 46.4706 14.333 46.4706 12.5707 44.7059Z" stroke="#125FCA" stroke-width="2.4" stroke-miterlimit="10"/>
<path d="M51.1061 26.8235L63.6772 39.4118C65.322 41.0588 67.9067 41.0588 69.5515 39.4118C71.1963 37.7647 71.1963 35.1765 69.5515 33.5294L49.6963 14" stroke="#A0CAF5" stroke-width="2.4" stroke-miterlimit="10"/>
<path d="M44.1748 44.5882L48.2868 48.7059C49.9316 50.3529 52.5163 50.3529 54.1611 48.7059C55.8059 47.0588 55.8059 44.4706 54.1611 42.8235L46.2896 34.9412" stroke="#A0CAF5" stroke-width="2.4" stroke-miterlimit="10"/>
<path d="M47.3467 35.8823L55.9232 44.3529C57.6855 46.1176 60.5052 46.1176 62.2674 44.3529C64.0297 42.5882 64.0297 39.7647 62.2674 38L52.1636 27.8823" stroke="#A0CAF5" stroke-width="2.4" stroke-miterlimit="10"/>
<path d="M49.6965 14L41.9424 17.1765" stroke="#125FCA" stroke-width="2.4" stroke-miterlimit="10"/>
<path d="M42.0599 17.0589C41.4725 17.4118 40.7676 17.5295 39.9452 17.5295C37.243 17.5295 35.0107 15.2942 35.0107 12.5883C35.0107 11.0589 35.7157 9.76476 36.6556 8.94123L43.9397 4.23535" stroke="#125FCA" stroke-width="2.4" stroke-miterlimit="10"/>
</g>
<defs>
<clipPath id="clip0">
<rect width="86" height="60" fill="white"/>
</clipPath>
</defs>
</svg>
