<svg width="67" height="56" viewBox="0 0 67 56" fill="none" xmlns="http://www.w3.org/2000/svg">
<g clip-path="url(#clip0)">
<path d="M1.14551 49.6625V6.45263C1.14551 3.57197 3.55064 1.15222 6.41388 1.15222H52.1113C54.9746 1.15222 57.3797 3.57197 57.3797 6.45263V10.6008" stroke="#125FCA" stroke-width="2.4" stroke-miterlimit="10"/>
<path d="M65.8543 49.6626C65.8543 52.5432 63.4492 54.963 60.586 54.963H6.6424C3.77915 54.963 1.37402 52.5432 1.37402 49.6626V15.786C1.37402 12.9053 3.77915 10.4856 6.6424 10.4856H60.586C63.4492 10.4856 65.8543 12.9053 65.8543 15.786V49.6626Z" stroke="#125FCA" stroke-width="2.4" stroke-miterlimit="10"/>
<path d="M6.41388 10.6008C3.55064 10.6008 1.14551 8.41148 1.14551 5.76128C1.14551 3.11107 3.55064 1.15222 6.41388 1.15222" stroke="#125FCA" stroke-width="2.4" stroke-miterlimit="10"/>
<path d="M51.4238 35.1441C54.1437 35.1441 56.3486 32.9258 56.3486 30.1894C56.3486 27.4529 54.1437 25.2346 51.4238 25.2346C48.7039 25.2346 46.499 27.4529 46.499 30.1894C46.499 32.9258 48.7039 35.1441 51.4238 35.1441Z" stroke="#A0CAF5" stroke-width="2.4" stroke-miterlimit="10"/>
<path d="M1.48926 44.5927H65.397" stroke="#125FCA" stroke-width="2.4" stroke-miterlimit="10"/>
<path d="M1.21947 12.9856L0.40625 7.71021L4.06576 10.5508L1.21947 12.9856Z" fill="#125FCA"/>
</g>
<defs>
<clipPath id="clip0">
<rect width="67" height="56" fill="white"/>
</clipPath>
</defs>
</svg>
